<?xml version="1.0" encoding="utf-8"?>
<svg version="1.1" id="Layer_1" xmlns="http://www.w3.org/2000/svg" xmlns:xlink="http://www.w3.org/1999/xlink" x="0px" y="0px"
	 viewBox="0 0 1494.106 1645.902" enable-background="new 0 0 1494.106 1645.902" xml:space="preserve">
<g>
	<path d="M1468.704,1447.119l4.568-59.386l-11.835-21.302l-19.272-9.636l-32.625,9.322l-26.803,24.57l-23.769,6.482h-31.488
		l-46.975,22.368l-46.825,2.23l-35.902,13.465l-46.737,8.903l-0.405,0.077l-46.343,28.688l-15.013-5.63l48.587-209.815l7.194-1.028
		l64.789-13.878l-22.676-142.866l-0.063-0.39l-33.522-60.339l-6.576-39.461l6.755-38.281l-9.075-20.418l-2.33-20.973l-13.08-6.54
		l4.309-34.474l-8.931-64.754l2.213-13.285l-2.24-78.424l-0.012-0.425l-20.278-47.316l-40.645-70.623h6.54l-24.486-46.524
		l-0.179-0.06l22.905-41.647c1.494-2.056,17.79-24.726,20.418-38.777c2.415-12.918-0.747-26.396-4.524-39.036
		c-4.603-15.401-11.686-29.56-20.484-40.947c-12.487-16.161-24.116-26.315-36.6-31.953c-18.862-8.521-38.996-8.447-52.568-6.887
		c-25.404,2.923-70.372,26.066-72.275,27.05l-2.114,1.094l7.312,12.185l-22.048,46.297v10.348
		c-4.853,2.677-22.818,13.018-28.71,22.494c-2.26,3.633-2.546,11.414-2.57,12.289l-0.047,1.659l12.337,4.112l-6.167,10.28
		l7.775,7.775l-9.657,3.863l2.363,16.535l-3.816,5.724c-1.612,1.359-6.873,6.094-7.248,10.246
		c-0.519,5.744,6.429,14.118,7.223,15.054l0.669,0.789h4.896l37.108,21.828l8.26,10.327l0.954,10.495l-23.78,12.084l9.158,36.633
		l-78.759,144.388l-29.012-22.795c-3.049-3.724-38.785-46.795-67.91-56.38l-1.831-0.605c-14.357-4.755-27.648-8.752-32.533-5.485
		c-1.252,0.837-1.97,2.077-2.079,3.583c-0.598,8.306,24.287,23.103,33.596,28.334l1.994,29.923h-26.66
		c-9.763,0-14.232-9.29-24.287-32.183c-1.521-3.462-3.16-7.192-4.958-11.19l-2.508-5.572l-6.147,21.516
		c-4.972,17.399,8.403,41.253,42.903,51.602l6.569,17.516l50.616,33.011l-11.066,37.626l40.574,42.829l6.693,71.384l31.212,40.131
		v0.215l-0.996-0.659l-37.488-16.437l-13.936,13.937l-113.19,13.316l-36.548,6.847l-41.363,39.065l-2.269,63.562v49.458
		l13.428,49.237l13.376,187.267l-4.444,37.777l-0.015,26.733l26.102,4.35l-3.3,9.901l-48.035,17.467l-44.431,11.109l-21.27,2.363
		l-12.53,30.071l33.767,14.474l245.967-6.771l2.473-19.779l0.018-32.088l-20.171-40.341l-11.128-95.693l-0.065-0.561l-15.425-22.035
		l8.837-46.389l-15.677-94.06v-25.51l-8.794-6.597l1.771-14.178l116.548,24.536l9.237,46.244l84.155,15.922l0.364,0.068l2.986-0.427
		l-0.683,6.828l-0.013,0.135l4.471,203.473l11.313,74.784l41.404,39.102l92.471,2.255l0.487,0.013l47.351-20.294l53.331-22.221
		l122.895-13.406l49.042-20.062h8.203l-1.783,14.254l-15.321,8.755l-7.873,18.369l38.552,16.866l43.632-13.777l29.668-22.823
		l20.842-32.421l-9.105-36.422v-28.056L1468.704,1447.119z"/>
	<g>
		<path d="M1138.564,1598.237"/>
	</g>
	<path d="M660.078,711.123l-32.868-24.507l-16.434-4.456L427.267,575.22l-2.361,8.108l-8.848-37.899l21.396-16.468l0.431-27.635
		l-39.829-52.655l-17.265-5.148l-14.072-1.303l-17.484-25.747l-0.077-29.812l-11.177-47.872l-24.665-17.187l0.719-46.059
		l-7.113-30.464l5.148-17.265l10.88-2.54l-6.384-7.688l13.055-3.048l-2.032-8.704l15.739-1.381l-4.793-40.183l15.52-21.98
		l-10.161-43.519l8.196-4.208c0,0-8.054-29.162-18.357-39.311c-14.01-13.799-35.325-17.48-53.824-24.146
		c-8.781-3.164-17.73-6.261-26.984-7.467c-13.619-1.775-41.199,0.441-41.199,0.441s-27.156,26.36-35.899,42.801
		c-17.224,32.382-30.377,105.759-30.377,105.759l-31.833,60.208L87.15,296.393l-14.637,104.38l17.715,115.182l6.164-12.912
		l5.589,23.936l6.308-22.125l4.065,17.408l6.815-19.947l3.049,13.055l4.563-49.251l14.37,51.714l24.885,37.787l20.897,50.19
		c0,0-14.433,37.58-18.778,57.16c-3.778,17.021-6.197,34.499-6.231,51.935c-0.05,26.239,2.05,52.91,9.078,78.191
		c7.121,25.615,24.447,47.435,33.014,72.602c20.64,60.642,43.693,187.129,43.693,187.129l23.53-4.247l4.33,31.394l-13.406,49.158
		l-69.269,75.973l-40.221,80.442l-31.283,91.614L87.87,1417.38l-46.925,35.752l-6.703,42.454l-13.408,73.738l6.704,2.235
		l24.579-44.69l15.642-26.814l24.579,46.925l4.469,35.752l15.642,20.11l26.813,13.406l46.925,2.235l6.703-13.408l-11.173-20.11
		l-26.814-20.11v-33.517l8.938-82.677l31.283-62.565l51.393-80.442l35.752-42.456l4.469,31.283l-8.938,96.083l-4.469,53.627
		l-31.283,60.331l2.235,26.814l17.875,89.379h11.173l-2.235-35.752l11.172-42.456l6.704,4.469l33.517,26.814l13.407,44.69
		l55.862,4.469l37.986-13.408l-6.703-20.11l-22.345-13.407l-29.048-6.704l-6.704-35.752l-15.642-71.504l2.234-40.221l15.642-107.256
		l17.877-82.677l6.704-80.441l8.938-33.517l23.763-97.032l83.063-14.992l-23.297-70.277l-47.469-222.959l13.343-21.472
		l-3.872-16.586l129.171,43.706l26.731,11.407c0,0-0.012,26.652,8.65,37.071c4.517,5.433,20.377,10.604,20.377,10.604
		c20.039,2.714,16.119,4.596,10.956-2.94l-14.899-12.12l10.956-24.508l8.217-2.228l27.39,15.596l13.695,33.419l13.695-6.684V757.91
		C718.402,738.719,693.421,724.436,660.078,711.123z"/>
</g>
</svg>
